<?xml version="1.0" encoding="UTF-8" standalone="no"?>
<svg width="24px" height="21px" viewBox="0 0 24 21" version="1.1" xmlns="http://www.w3.org/2000/svg" xmlns:xlink="http://www.w3.org/1999/xlink">
    <!-- Generator: Sketch 3.8.3 (29802) - http://www.bohemiancoding.com/sketch -->
    <title>interface</title>
    <desc>Created with Sketch.</desc>
    <defs></defs>
    <g id="Page-1" stroke="none" stroke-width="1" fill="none" fill-rule="evenodd">
        <g id="main" transform="translate(-479.000000, -13.000000)" fill="#BCBCBC">
            <g id="interface" transform="translate(479.500000, 13.000000)">
                <g id="Capa_1">
                    <g id="Group">
                        <path d="M22.3433781,14.3807904 C22.0886993,14.1259203 21.7789134,13.9983895 21.4148815,13.9983895 L15.0776651,13.9983895 L13.2202893,15.8557175 C12.69218,16.3655057 12.0730866,16.6205194 11.3629134,16.6205194 C10.6528838,16.6205194 10.0335991,16.3658405 9.50553759,15.8557175 L7.66179499,13.9983895 L1.31108884,13.9983895 C0.946961276,13.9983895 0.637414579,14.1260638 0.382400911,14.3807904 C0.12743508,14.6356606 0,14.9452551 0,15.3096219 L0,19.6798223 C0,20.0440456 0.12743508,20.3535923 0.382400911,20.6085103 C0.637366743,20.8633804 0.94691344,20.9907198 1.31108884,20.9907198 L21.4149294,20.9907198 C21.7789613,20.9907198 22.0887472,20.8633804 22.343426,20.6085103 C22.5984875,20.3535923 22.7258269,20.0440456 22.7258269,19.6798223 L22.7258269,15.3096219 C22.7258269,14.9452551 22.5984875,14.6356606 22.3433781,14.3807904 L22.3433781,14.3807904 Z M17.2221526,18.9832825 C17.0489385,19.1563052 16.8440091,19.2427449 16.6072688,19.2427449 C16.3705285,19.2427449 16.1658861,19.1563052 15.9927198,18.9832825 C15.8198405,18.8102597 15.7334009,18.6054738 15.7334009,18.368877 C15.7334009,18.1321845 15.8198405,17.9270638 15.9927198,17.754328 C16.1658861,17.5811617 16.3705285,17.4945308 16.6072688,17.4945308 C16.8440091,17.4945308 17.0488907,17.5811617 17.2221526,17.754328 C17.3949841,17.9270159 17.4814715,18.1321367 17.4814715,18.368877 C17.4814715,18.605426 17.3949841,18.8102597 17.2221526,18.9832825 L17.2221526,18.9832825 Z M20.7181982,18.9832825 C20.5453189,19.1563052 20.3403895,19.2427449 20.1036014,19.2427449 C19.8669089,19.2427449 19.662123,19.1563052 19.4890524,18.9832825 C19.316221,18.8102597 19.2297813,18.6054738 19.2297813,18.368877 C19.2297813,18.1321845 19.316221,17.9270638 19.4890524,17.754328 C19.6620752,17.5811617 19.866861,17.4945308 20.1036014,17.4945308 C20.3403417,17.4945308 20.5452711,17.5811617 20.7181982,17.754328 C20.891221,17.9270159 20.9778041,18.1321367 20.9778041,18.368877 C20.9778041,18.605426 20.8913645,18.8102597 20.7181982,18.9832825 L20.7181982,18.9832825 Z" id="Shape"></path>
                        <path d="M11.3629134,14.8722096 C11.6088383,14.8722096 11.8134328,14.7857221 11.9774624,14.6128907 L18.0960205,8.49428474 C18.378205,8.2302779 18.4420661,7.9115467 18.287221,7.53823462 C18.1327107,7.18324374 17.8640159,7.00572437 17.4814715,7.00553303 L13.9850911,7.00553303 L13.9850911,0.887022779 C13.9850911,0.650330296 13.8984601,0.445448747 13.7257722,0.272473804 C13.5526059,0.0994510251 13.34782,0.0129157175 13.1112232,0.0129157175 L9.61460364,0.0129157175 C9.37800683,0.0129157175 9.17312528,0.0994510251 9.00005467,0.272473804 C8.82712756,0.445448747 8.74059226,0.65028246 8.74059226,0.887022779 L8.74059226,7.00558087 L5.24430752,7.00558087 C4.86171526,7.00558087 4.59325968,7.18329157 4.43846241,7.53828246 C4.28376082,7.91145103 4.34743052,8.23032574 4.62975854,8.49433257 L10.7483645,14.6128907 C10.9123462,14.7857221 11.11718,14.8722096 11.3629134,14.8722096 Z" id="Shape"></path>
                    </g>
                </g>
            </g>
        </g>
    </g>
</svg>