<?xml version="1.0" encoding="UTF-8" standalone="no"?>
<svg width="68px" height="63px" viewBox="0 0 68 63" version="1.1" xmlns="http://www.w3.org/2000/svg" xmlns:xlink="http://www.w3.org/1999/xlink">
    <!-- Generator: Sketch 3.8.3 (29802) - http://www.bohemiancoding.com/sketch -->
    <title>interface</title>
    <desc>Created with Sketch.</desc>
    <defs></defs>
    <g id="Page-1" stroke="none" stroke-width="1" fill="none" fill-rule="evenodd">
        <g id="main" transform="translate(-715.000000, -344.000000)" fill="#BCBCBC">
            <g id="interface" transform="translate(715.000000, 344.000000)">
                <g id="Capa_1">
                    <g id="Group">
                        <path d="M66.4990744,43.1423713 C65.7410912,42.3777608 64.8190966,41.9951686 63.7356533,41.9951686 L44.8746278,41.9951686 L39.3466465,47.5671526 C37.7748707,49.0965171 35.9323052,49.8615581 33.8186653,49.8615581 C31.7054525,49.8615581 29.8623175,49.0975216 28.290684,47.5671526 L22.8032785,41.9951686 L3.9021044,41.9951686 C2.81837634,41.9951686 1.89709359,42.3781913 1.13811378,43.1423713 C0.379276347,43.9069818 0,44.8357654 0,45.9288656 L0,59.039467 C0,60.1321367 0.379276347,61.0607768 1.13811378,61.8255308 C1.89695122,62.5901412 2.81823397,62.9721595 3.9021044,62.9721595 L63.7357956,62.9721595 C64.819239,62.9721595 65.7412336,62.5901412 66.4992168,61.8255308 C67.2583389,61.0607768 67.6373305,60.1321367 67.6373305,59.039467 L67.6373305,45.9288656 C67.6373305,44.8357654 67.2583389,43.9069818 66.4990744,43.1423713 L66.4990744,43.1423713 Z M51.2571197,56.9498474 C50.7415943,57.4689157 50.131677,57.7282346 49.4270829,57.7282346 C48.7224888,57.7282346 48.1134257,57.4689157 47.5980426,56.9498474 C47.0835138,56.430779 46.8262494,55.8164214 46.8262494,55.106631 C46.8262494,54.3965535 47.0835138,53.7811913 47.5980426,53.2629841 C48.1134257,52.7434852 48.7224888,52.4835923 49.4270829,52.4835923 C50.131677,52.4835923 50.741452,52.7434852 51.2571197,53.2629841 C51.7715062,53.7810478 52.0289129,54.39641 52.0289129,55.106631 C52.0289129,55.8162779 51.7715062,56.430779 51.2571197,56.9498474 L51.2571197,56.9498474 Z M61.662162,56.9498474 C61.1476332,57.4689157 60.5377158,57.7282346 59.8329794,57.7282346 C59.1285277,57.7282346 58.5190374,57.4689157 58.0039391,56.9498474 C57.4895527,56.430779 57.2322883,55.8164214 57.2322883,55.106631 C57.2322883,54.3965535 57.4895527,53.7811913 58.0039391,53.2629841 C58.518895,52.7434852 59.1283853,52.4835923 59.8329794,52.4835923 C60.5375735,52.4835923 61.1474908,52.7434852 61.662162,53.2629841 C62.1771179,53.7810478 62.4348094,54.39641 62.4348094,55.106631 C62.4348094,55.8162779 62.177545,56.430779 61.662162,56.9498474 L61.662162,56.9498474 Z" id="Shape"></path>
                        <path d="M33.8186653,44.6166287 C34.5505946,44.6166287 35.1595154,44.3571663 35.6477055,43.838672 L53.8579532,25.4828542 C54.6977997,24.6908337 54.887865,23.7346401 54.4270101,22.6147039 C53.9671517,21.5497312 53.1674538,21.0171731 52.0289129,21.0165991 L41.6228741,21.0165991 L41.6228741,2.66106834 C41.6228741,1.95099089 41.3650402,1.33634624 40.8510809,0.817421412 C40.3356979,0.298353075 39.7262076,0.0387471526 39.0220406,0.0387471526 L28.6152899,0.0387471526 C27.9111229,0.0387471526 27.3013479,0.298353075 26.7862497,0.817421412 C26.2715785,1.33634624 26.0140294,1.95084738 26.0140294,2.66106834 L26.0140294,21.0167426 L15.6082752,21.0167426 C14.469592,21.0167426 13.6706059,21.5498747 13.2098934,22.6148474 C12.7494655,23.7343531 12.9389613,24.6909772 13.779235,25.4829977 L31.989625,43.838672 C32.4776728,44.3571663 33.0873054,44.6166287 33.8186653,44.6166287 Z" id="Shape"></path>
                    </g>
                </g>
            </g>
        </g>
    </g>
</svg>