<?xml version="1.0" encoding="UTF-8" standalone="no"?>
<svg width="100px" height="76px" viewBox="0 0 100 76" version="1.1" xmlns="http://www.w3.org/2000/svg" xmlns:xlink="http://www.w3.org/1999/xlink">
    <!-- Generator: Sketch 3.8.3 (29802) - http://www.bohemiancoding.com/sketch -->
    <title>folder-1</title>
    <desc>Created with Sketch.</desc>
    <defs></defs>
    <g id="Page-1" stroke="none" stroke-width="1" fill="none" fill-rule="evenodd">
        <g id="main" transform="translate(-755.000000, -79.000000)" fill="#C9C9C9">
            <g id="folder-1" transform="translate(755.000000, 79.000000)">
                <g id="Layer_1">
                    <g id="Group">
                        <path d="M33.3149456,6.5428666 L33.3149456,3.71466402 C33.3149456,1.73717312 31.7437649,0.119165839 29.8235044,0.119165839 L9.77616414,0.119165839 C7.85558215,0.119165839 6.28472287,1.73717312 6.28472287,3.71466402 L6.28472287,6.5428666 L5.23748335,6.5428666 C2.35677108,6.5428666 0,8.96987752 0,11.9361139 L0,69.7864945 C0,72.7527309 2.35677108,75.1797418 5.23716191,75.1797418 L93.940085,75.1797418 C96.8204759,75.1797418 99.177247,72.7527309 99.177247,69.7864945 L99.177247,11.9361139 C99.1775684,8.96987752 96.8207973,6.5428666 93.940085,6.5428666 L33.3149456,6.5428666 Z" id="Shape"></path>
                        <rect id="Rectangle-path" x="7.47114431" y="11.7130089" width="84.2352798" height="58.2962595"></rect>
                    </g>
                </g>
            </g>
        </g>
    </g>
</svg>