<?xml version="1.0" encoding="UTF-8" standalone="no"?>
<svg width="25px" height="20px" viewBox="0 0 25 20" version="1.1" xmlns="http://www.w3.org/2000/svg" xmlns:xlink="http://www.w3.org/1999/xlink">
    <!-- Generator: Sketch 3.8.3 (29802) - http://www.bohemiancoding.com/sketch -->
    <title>home</title>
    <desc>Created with Sketch.</desc>
    <defs></defs>
    <g id="Page-1" stroke="none" stroke-width="1" fill="none" fill-rule="evenodd">
        <g id="main" transform="translate(-113.000000, -71.000000)" fill="#CCCCCC">
            <g id="home" transform="translate(113.000000, 71.000000)">
                <g id="Capa_1">
                    <g id="Group">
                        <path d="M12.3629688,4.07345038 L3.58273593,11.429839 C3.58273593,11.4402212 3.58016866,11.4554955 3.57503411,11.4763141 C3.57000653,11.4969698 3.56733229,11.5119723 3.56733229,11.5226262 L3.56733229,18.9717477 C3.56733229,19.2407055 3.66408638,19.4737878 3.85754107,19.6700705 C4.05094227,19.866462 4.27996439,19.9652828 4.54466089,19.9652828 L10.4082046,19.9652828 L10.4082046,14.0058117 L14.3177864,14.0058117 L14.3177864,19.9655002 L20.1812767,19.9655002 C20.4459197,19.9655002 20.6752627,19.8668968 20.8683965,19.6700705 C21.0618512,19.4740053 21.1589262,19.2407599 21.1589262,18.9717477 L21.1589262,11.5226262 C21.1589262,11.481315 21.1533638,11.4501141 21.1435225,11.429839 L12.3629688,4.07345038 L12.3629688,4.07345038 Z" id="Shape"></path>
                        <path d="M24.5025848,9.7536902 L21.1586053,6.9291979 L21.1586053,0.597327777 C21.1586053,0.4525754 21.1128222,0.333533828 21.0209353,0.240366132 C20.9297971,0.14730715 20.8126653,0.100777659 20.6699142,0.100777659 L17.7380889,0.100777659 C17.5954983,0.100777659 17.47842,0.14730715 17.3866934,0.240366132 C17.2951809,0.333533828 17.2494513,0.452629757 17.2494513,0.597327777 L17.2494513,3.62353847 L13.52359,0.457521876 C13.1981881,0.188509667 12.8112788,0.0540307408 12.3632897,0.0540307408 C11.9153541,0.0540307408 11.5284982,0.188509667 11.2027755,0.457521876 L0.22313878,9.7536902 C0.121357117,9.83631266 0.0655724218,9.94752684 0.0551963616,10.087224 C0.0448737862,10.2268125 0.0804412091,10.348735 0.1620056,10.4521218 L1.10874087,11.600574 C1.19030526,11.693633 1.29706101,11.7505446 1.42943601,11.7713633 C1.55164888,11.7817998 1.67386176,11.7454894 1.79607463,11.6627583 L12.3629688,2.70789679 L22.9299699,11.6627039 C23.0115878,11.7348898 23.1182901,11.7709284 23.250665,11.7709284 L23.296555,11.7709284 C23.4287161,11.7504903 23.5352579,11.6931981 23.6172502,11.6003566 L24.5640924,10.4520674 C24.6454964,10.3484632 24.6811708,10.2267581 24.6705808,10.0870066 C24.6601512,9.94768991 24.6041526,9.83647573 24.5025848,9.7536902 L24.5025848,9.7536902 Z" id="Shape"></path>
                    </g>
                </g>
            </g>
        </g>
    </g>
</svg>