<?xml version="1.0" encoding="UTF-8" standalone="no"?>
<svg width="26px" height="20px" viewBox="0 0 26 20" version="1.1" xmlns="http://www.w3.org/2000/svg" xmlns:xlink="http://www.w3.org/1999/xlink">
    <!-- Generator: Sketch 3.8.3 (29802) - http://www.bohemiancoding.com/sketch -->
    <title>Group 7</title>
    <desc>Created with Sketch.</desc>
    <defs></defs>
    <g id="Page-1" stroke="none" stroke-width="1" fill="none" fill-rule="evenodd">
        <g id="main" transform="translate(-171.000000, -14.000000)">
            <g id="Group-7" transform="translate(171.000000, 14.000000)">
                <g id="folder-1" fill="#C4C4C4">
                    <g id="Layer_1">
                        <g id="Group">
                            <path d="M8.68752432,1.70289787 L8.68752432,0.966807644 C8.68752432,0.452130326 8.27780819,0.0310150376 7.77706265,0.0310150376 L2.5493262,0.0310150376 C2.04849684,0.0310150376 1.63886453,0.452130326 1.63886453,0.966807644 L1.63886453,1.70289787 L1.36577632,1.70289787 C0.6145742,1.70289787 0,2.3345708 0,3.10658678 L0,18.1631814 C0,18.9351974 0.6145742,19.5668703 1.3656925,19.5668703 L24.4967164,19.5668703 C25.2478347,19.5668703 25.8624089,18.9351974 25.8624089,18.1631814 L25.8624089,3.10658678 C25.8624927,2.3345708 25.2479185,1.70289787 24.4967164,1.70289787 L8.68752432,1.70289787 Z" id="Shape"></path>
                            <rect id="Rectangle-path" x="1.94824715" y="3.04851974" width="21.9659984" height="15.1726425"></rect>
                        </g>
                    </g>
                </g>
                <g id="back-2" transform="translate(2.142857, 0.785714)">
                    <g id="Capa_1">
                        <g id="Group" transform="translate(10.000000, 10.000000) scale(-1, 1) translate(-10.000000, -10.000000) ">
                            <path d="M9.82142857,19.6352496 C15.2414522,19.6352496 19.6352496,15.2414522 19.6352496,9.82142857 C19.6352496,4.4014049 15.2414522,0.00760758197 9.82142857,0.00760758197 C4.4014049,0.00760758197 0.00760758197,4.4014049 0.00760758197,9.82142857 C0.00760758197,15.2414522 4.4014049,19.6352496 9.82142857,19.6352496 Z" id="Oval"></path>
                            <path d="M15.7429852,4.81491511 C15.5638649,5.59221677 15.2322709,6.29710553 14.7957406,6.8796692 C14.3599751,7.46335992 13.8216884,7.92581235 13.2448002,8.24843018 C12.6677108,8.57181279 12.0531067,8.75475703 11.4638612,8.80394467 C11.1690574,8.82890076 10.8805328,8.82097117 10.6037617,8.78410056 C10.5212054,8.77311183 10.4398566,8.75922497 10.3594738,8.74320477 L10.3594738,6.66528835 L6.82496707,8.70593165 L3.29042008,10.7466152 L6.82496707,12.7872585 L10.3594738,14.8279018 L10.3594738,12.7877818 C10.4360326,12.7691855 10.5124707,12.7498646 10.5881843,12.7290544 C10.8424546,12.6592579 11.0916532,12.5772248 11.3342103,12.483559 C11.8194453,12.2963078 12.277953,12.0624854 12.700677,11.790142 C13.5469701,11.2456565 14.2476325,10.547369 14.7685707,9.77203967 C15.290475,8.99658958 15.6332589,8.14377561 15.7912471,7.29188744 C15.9505233,6.43959675 15.9231118,5.59088847 15.7429852,4.81491511 L15.7429852,4.81491511 Z" id="Shape" fill="#FFFFFF"></path>
                        </g>
                    </g>
                </g>
            </g>
        </g>
    </g>
</svg>