<?xml version="1.0" encoding="UTF-8" standalone="no"?>
<svg width="28px" height="22px" viewBox="0 0 28 22" version="1.1" xmlns="http://www.w3.org/2000/svg" xmlns:xlink="http://www.w3.org/1999/xlink">
    <!-- Generator: Sketch 3.8.3 (29802) - http://www.bohemiancoding.com/sketch -->
    <title>Group 6</title>
    <desc>Created with Sketch.</desc>
    <defs></defs>
    <g id="Page-1" stroke="none" stroke-width="1" fill="none" fill-rule="evenodd">
        <g id="main" transform="translate(-18.000000, -14.000000)">
            <g id="Group-6" transform="translate(18.000000, 14.000000)">
                <g id="folder-1" fill="#C4C4C4">
                    <g id="Layer_1">
                        <g id="Group">
                            <path d="M9.35579542,1.83389001 L9.35579542,1.04117746 C9.35579542,0.486909582 8.91456267,0.0334008097 8.37529824,0.0334008097 L2.74542822,0.0334008097 C2.20607352,0.0334008097 1.76493103,0.486909582 1.76493103,1.04117746 L1.76493103,1.83389001 L1.47083604,1.83389001 C0.661849138,1.83389001 0,2.51415317 0,3.34555499 L0,19.5603492 C0,20.391751 0.661849138,21.0720142 1.47074577,21.0720142 L26.3810792,21.0720142 C27.1899758,21.0720142 27.8518249,20.391751 27.8518249,19.5603492 L27.8518249,3.34555499 C27.8519152,2.51415317 27.1900661,1.83389001 26.3810792,1.83389001 L9.35579542,1.83389001 Z" id="Shape"></path>
                            <polygon id="Rectangle-path" points="2.09811232 3.28302126 25.7538029 3.28302126 25.7538029 9.5 25.7538029 19.6227901 2.09811232 19.6227901"></polygon>
                        </g>
                    </g>
                </g>
                <g id="plus" transform="translate(5.923077, 4.230769)">
                    <g id="Layer_1">
                        <g id="Group">
                            <path d="M7.61538462,15.2307692 C11.8212454,15.2307692 15.2307692,11.8212454 15.2307692,7.61538462 C15.2307692,3.40952383 11.8212454,0 7.61538462,0 C3.40952383,0 0,3.40952383 0,7.61538462 C0,11.8212454 3.40952383,15.2307692 7.61538462,15.2307692 Z" id="Oval"></path>
                            <polygon id="Shape" fill="#FFFFFF" points="12.5813846 6.53846154 8.69230769 6.53846154 8.69230769 2.64938462 6.53846154 2.64938462 6.53846154 6.53846154 2.64938462 6.53846154 2.64938462 8.69230769 6.53846154 8.69230769 6.53846154 12.5813846 8.69230769 12.5813846 8.69230769 8.69230769 12.5813846 8.69230769"></polygon>
                        </g>
                    </g>
                </g>
            </g>
        </g>
    </g>
</svg>