<?xml version="1.0" encoding="UTF-8" standalone="no"?>
<svg width="37px" height="22px" viewBox="0 0 37 22" version="1.1" xmlns="http://www.w3.org/2000/svg" xmlns:xlink="http://www.w3.org/1999/xlink">
    <!-- Generator: Sketch 3.8.3 (29802) - http://www.bohemiancoding.com/sketch -->
    <title>font</title>
    <desc>Created with Sketch.</desc>
    <defs></defs>
    <g id="Page-1" stroke="none" stroke-width="1" fill="none" fill-rule="evenodd">
        <g id="main" transform="translate(-303.000000, -13.000000)" fill="#BCBCBC">
            <g id="font" transform="translate(303.000000, 13.000000)">
                <g id="Layer_1">
                    <g id="Group">
                        <polygon id="Shape" points="36.2530659 1.18548571 36.2530659 0.0183333333 31.1467826 0.0183333333 31.1467826 1.18548571 33.1061543 1.18548571 33.1061543 20.8260381 31.1467826 20.8260381 31.1467826 21.9931905 36.2530659 21.9931905 36.2530659 20.8260381 34.2936942 20.8260381 34.2936942 1.18548571"></polygon>
                        <g transform="translate(0.000000, 2.409524)" id="Shape">
                            <path d="M0.220325386,14.8332381 L6.19671809,1.56880952 C6.61338569,0.654133333 7.37242637,0.100257143 8.40146424,0.100257143 L8.62189621,0.100257143 C9.65029453,0.100257143 10.385352,0.654028571 10.8015933,1.56880952 L16.7781992,14.8332381 C16.9006732,15.0980762 16.9743282,15.3387143 16.9743282,15.5795619 C16.9743282,16.5665238 16.1904516,17.3609333 15.1861431,17.3609333 C14.3044151,17.3609333 13.7164544,16.8554571 13.373655,16.0849333 L12.2225694,13.4370762 L4.67842356,13.4370762 L3.47819916,16.2055143 C3.15970266,16.9276381 2.52302945,17.3609333 1.73915288,17.3609333 C0.759040673,17.3609333 0,16.590619 0,15.6276476 C0,15.3628095 0.0978513324,15.0980762 0.220325386,14.8332381 L0.220325386,14.8332381 Z M10.8263226,10.1630571 L8.45028331,4.60208571 L6.07445722,10.1630571 L10.8263226,10.1630571 L10.8263226,10.1630571 Z"></path>
                            <path d="M18.7613408,13.5091524 L18.7613408,13.4609619 C18.7613408,10.6444381 20.9413576,9.34444762 24.0520281,9.34444762 C25.3748331,9.34444762 26.330216,9.56109524 27.2609762,9.87412381 L27.2609762,9.65747619 C27.2609762,8.14073333 26.3055933,7.29834286 24.4440729,7.29834286 C23.4153548,7.29834286 22.5825526,7.44270476 21.8722244,7.65945714 C21.651899,7.7316381 21.5048022,7.75562857 21.3330827,7.75562857 C20.4760842,7.75562857 19.7902721,7.10568571 19.7902721,6.26319048 C19.7902721,5.61314286 20.2065133,5.05947619 20.7942609,4.84272381 C21.9699691,4.40942857 23.2438485,4.16868571 24.9828948,4.16868571 C27.0157083,4.16868571 28.4855035,4.69825714 29.4163703,5.6130381 C30.3960561,6.57590476 30.8369201,7.99637143 30.8369201,9.72965714 L30.8369201,15.6034476 C30.8369201,16.590619 30.0286339,17.3608286 29.0243254,17.3608286 C27.946575,17.3608286 27.2363534,16.6146095 27.2363534,15.8441905 L27.2363534,15.8200952 C26.3301094,16.8070571 25.0806396,17.457 23.2683647,17.457 C20.7942609,17.4572095 18.7613408,16.0611524 18.7613408,13.5091524 L18.7613408,13.5091524 Z M27.3096886,12.6665524 L27.3096886,12.0166095 C26.6729088,11.727781 25.8401066,11.5351238 24.9338626,11.5351238 C23.3415933,11.5351238 22.362014,12.1610762 22.362014,13.3164952 L22.362014,13.3646857 C22.362014,14.3517524 23.1948163,14.9294095 24.3949341,14.9294095 C26.1339804,14.9295143 27.3096886,13.9907429 27.3096886,12.6665524 L27.3096886,12.6665524 Z"></path>
                        </g>
                    </g>
                </g>
            </g>
        </g>
    </g>
</svg>