<?xml version="1.0" encoding="UTF-8" standalone="no"?>
<svg width="38px" height="25px" viewBox="0 0 38 25" version="1.1" xmlns="http://www.w3.org/2000/svg" xmlns:xlink="http://www.w3.org/1999/xlink">
    <!-- Generator: Sketch 3.8.3 (29802) - http://www.bohemiancoding.com/sketch -->
    <title>folder-1</title>
    <desc>Created with Sketch.</desc>
    <defs></defs>
    <g id="Page-1" stroke="none" stroke-width="1" fill="none" fill-rule="evenodd">
        <g id="main" transform="translate(-15.000000, -241.000000)">
            <g id="folder-1" transform="translate(15.000000, 241.000000)">
                <g id="Layer_1">
                    <g id="Group">
                        <path d="M11.1685345,2.16732456 L11.1685345,1.23048246 C11.1685345,0.575438596 10.6418103,0.0394736842 9.99806034,0.0394736842 L3.27737069,0.0394736842 C2.63351293,0.0394736842 2.10689655,0.575438596 2.10689655,1.23048246 L2.10689655,2.16732456 L1.75581897,2.16732456 C0.790086207,2.16732456 0,2.97127193 0,3.95383772 L0,23.1167763 C0,24.0993421 0.790086207,24.9032895 1.75571121,24.9032895 L31.4925647,24.9032895 C32.4581897,24.9032895 33.2482759,24.0993421 33.2482759,23.1167763 L33.2482759,3.95383772 C33.2483836,2.97127193 32.4582974,2.16732456 31.4925647,2.16732456 L11.1685345,2.16732456 Z" id="Shape" fill="#D4D4D4"></path>
                        <rect id="Rectangle-path" fill="#FFFFFF" x="2.50463362" y="3.87993421" width="28.2391164" height="19.310636"></rect>
                        <path d="M31.4925647,24.9032895 L1.75571121,24.9032895 C0.790086207,24.9032895 0.188146552,24.1224781 0.418211207,23.1680921 L4.14644397,7.70208333 C4.37650862,6.74769737 5.35474138,5.96688596 6.32047414,5.96688596 L36.0573276,5.96688596 C37.0229526,5.96688596 37.6248922,6.74769737 37.3948276,7.70208333 L33.6665948,23.1680921 C33.4365302,24.1224781 32.4582974,24.9032895 31.4925647,24.9032895 Z" id="Shape" fill="#CCCCCC"></path>
                    </g>
                </g>
            </g>
        </g>
    </g>
</svg>