<?xml version="1.0" encoding="UTF-8" standalone="no"?>
<svg width="45px" height="30px" viewBox="0 0 45 30" version="1.1" xmlns="http://www.w3.org/2000/svg" xmlns:xlink="http://www.w3.org/1999/xlink">
    <!-- Generator: Sketch 3.8.3 (29802) - http://www.bohemiancoding.com/sketch -->
    <title>folder-1</title>
    <desc>Created with Sketch.</desc>
    <defs></defs>
    <g id="Page-1" stroke="none" stroke-width="1" fill="none" fill-rule="evenodd">
        <g id="main" transform="translate(-139.000000, -162.000000)">
            <g id="folder-1" transform="translate(139.000000, 162.000000)">
                <g id="Layer_1">
                    <g id="Group">
                        <path d="M13.4022414,2.60078947 L13.4022414,1.47657895 C13.4022414,0.690526316 12.7701724,0.0473684211 11.9976724,0.0473684211 L3.93284483,0.0473684211 C3.16021552,0.0473684211 2.52827586,0.690526316 2.52827586,1.47657895 L2.52827586,2.60078947 L2.10698276,2.60078947 C0.948103448,2.60078947 0,3.56552632 0,4.74460526 L0,27.7401316 C0,28.9192105 0.948103448,29.8839474 2.10685345,29.8839474 L37.7910776,29.8839474 C38.9498276,29.8839474 39.897931,28.9192105 39.897931,27.7401316 L39.897931,4.74460526 C39.8980603,3.56552632 38.9499569,2.60078947 37.7910776,2.60078947 L13.4022414,2.60078947 Z" id="Shape" fill="#C9C9C9"></path>
                        <rect id="Rectangle-path" fill="#FFFFFF" x="3.00556034" y="4.65592105" width="33.8869397" height="23.1727632"></rect>
                        <path d="M37.7910776,29.8839474 L2.10685345,29.8839474 C0.948103448,29.8839474 0.225775862,28.9469737 0.501853448,27.8017105 L4.97573276,9.2425 C5.25181034,8.09723684 6.42568966,7.16026316 7.58456897,7.16026316 L43.2687931,7.16026316 C44.4275431,7.16026316 45.1498707,8.09723684 44.8737931,9.2425 L40.3999138,27.8017105 C40.1238362,28.9469737 38.9499569,29.8839474 37.7910776,29.8839474 Z" id="Shape" fill="#D7D7D7"></path>
                    </g>
                </g>
            </g>
        </g>
    </g>
</svg>