<?xml version="1.0" encoding="UTF-8" standalone="no"?>
<svg width="40px" height="27px" viewBox="0 0 40 27" version="1.1" xmlns="http://www.w3.org/2000/svg" xmlns:xlink="http://www.w3.org/1999/xlink">
    <!-- Generator: Sketch 3.8.3 (29802) - http://www.bohemiancoding.com/sketch -->
    <title>folder-1</title>
    <desc>Created with Sketch.</desc>
    <defs></defs>
    <g id="Page-1" stroke="none" stroke-width="1" fill="none" fill-rule="evenodd">
        <g id="main" transform="translate(-15.000000, -202.000000)">
            <g id="folder-1" transform="translate(15.000000, 202.000000)">
                <g id="Layer_1">
                    <g id="Group">
                        <path d="M11.9131034,2.31181287 L11.9131034,1.31251462 C11.9131034,0.61380117 11.3512644,0.0421052632 10.6645977,0.0421052632 L3.49586207,0.0421052632 C2.80908046,0.0421052632 2.24735632,0.61380117 2.24735632,1.31251462 L2.24735632,2.31181287 L1.87287356,2.31181287 C0.842758621,2.31181287 0,3.16935673 0,4.2174269 L0,24.6578947 C0,25.7059649 0.842758621,26.5635088 1.87275862,26.5635088 L33.592069,26.5635088 C34.622069,26.5635088 35.4648276,25.7059649 35.4648276,24.6578947 L35.4648276,4.2174269 C35.4649425,3.16935673 34.6221839,2.31181287 33.592069,2.31181287 L11.9131034,2.31181287 Z" id="Shape" fill="#C9C9C9"></path>
                        <rect id="Rectangle-path" fill="#FFFFFF" x="2.6716092" y="4.13859649" width="30.1217241" height="20.5980117"></rect>
                        <path d="M33.592069,26.5635088 L1.87275862,26.5635088 C0.842758621,26.5635088 0.200689655,25.7306433 0.446091954,24.7126316 L4.42287356,8.21555556 C4.66827586,7.19754386 5.71172414,6.36467836 6.74183908,6.36467836 L38.4611494,6.36467836 C39.4911494,6.36467836 40.1332184,7.19754386 39.8878161,8.21555556 L35.9110345,24.7126316 C35.6656322,25.7306433 34.6221839,26.5635088 33.592069,26.5635088 Z" id="Shape" fill="#D7D7D7"></path>
                    </g>
                </g>
            </g>
        </g>
    </g>
</svg>