<?xml version="1.0" encoding="UTF-8" standalone="no"?>
<svg width="25px" height="22px" viewBox="0 0 25 22" version="1.1" xmlns="http://www.w3.org/2000/svg" xmlns:xlink="http://www.w3.org/1999/xlink">
    <!-- Generator: Sketch 3.8.3 (29802) - http://www.bohemiancoding.com/sketch -->
    <title>cloud-computing</title>
    <desc>Created with Sketch.</desc>
    <defs></defs>
    <g id="Page-1" stroke="none" stroke-width="1" fill="none" fill-rule="evenodd">
        <g id="main" transform="translate(-1063.000000, -13.000000)">
            <g id="cloud-computing" transform="translate(1064.000000, 14.000000)">
                <g id="Capa_1">
                    <path d="M12.8773106,0 C10.7135768,0 8.68179221,1.16963845 7.56002915,2.85539689 C7.067263,2.52727536 6.475243,2.33538459 5.83846147,2.33538459 C4.11883995,2.33538459 2.72461535,3.72960919 2.72461535,5.44923071 C2.72461535,5.50878301 2.73006458,5.5667784 2.73356766,5.62594147 C2.72967535,5.69678147 2.72461535,5.76839993 2.72461535,5.83846147 C1.17236306,6.58267069 0,8.35172452 0,10.1803307 C0,12.7161691 2.07459998,14.7907691 4.61043841,14.7907691 L14.1493168,14.7907691 C14.2030306,14.7907691 14.2551875,14.7845414 14.3081229,14.7825952 C14.3614475,14.7845414 14.4136045,14.7907691 14.4673183,14.7907691 L18.2829475,14.7907691 C20.6436321,14.7907691 22.5753844,12.8590168 22.5753844,10.4983322 C22.5753844,8.40777375 21.0597198,6.601743 19.0734752,6.22769224 C19.0287136,2.84177381 16.2737383,0 12.8773106,0 Z" id="Shape" stroke="#A4A4A4" fill="#D0D0D0"></path>
                    <path id="Shape" stroke="#7383BF" stroke-width="2" fill="#7FABDA"></path>
                    <path d="M2.72461535,5.44923071 C2.72461535,3.72960919 4.11883995,2.33538459 5.83846147,2.33538459 C7.55808299,2.33538459 8.95230759,3.72960919 8.95230759,5.44923071" id="Shape" stroke="#9D9D9D" fill="#D0D0D0"></path>
                    <path d="M11.4999999,16.5599998 C13.7864587,16.5599998 15.6399998,14.7064587 15.6399998,12.4199999 C15.6399998,10.133541 13.7864587,8.27999991 11.4999999,8.27999991 C9.21354103,8.27999991 7.35999992,10.133541 7.35999992,12.4199999 C7.35999992,14.7064587 9.21354103,16.5599998 11.4999999,16.5599998 Z" id="Oval" stroke="#7E7E7E" stroke-width="2" fill="#FFFFFF"></path>
                    <path d="M3.67999996,15.6399998 L8.23376758,20.1937674" id="Shape" stroke="#7A7A7A" stroke-width="2" transform="translate(5.956884, 17.916884) scale(-1, 1) translate(-5.956884, -17.916884) "></path>
                </g>
            </g>
        </g>
    </g>
</svg>