<?xml version="1.0" encoding="UTF-8" standalone="no"?>
<svg width="27px" height="26px" viewBox="0 0 27 26" version="1.1" xmlns="http://www.w3.org/2000/svg" xmlns:xlink="http://www.w3.org/1999/xlink">
    <!-- Generator: Sketch 3.8.3 (29802) - http://www.bohemiancoding.com/sketch -->
    <title>Group 2</title>
    <desc>Created with Sketch.</desc>
    <defs></defs>
    <g id="Page-1" stroke="none" stroke-width="1" fill="none" fill-rule="evenodd">
        <g id="main" transform="translate(-1062.000000, -12.000000)">
            <g id="Group-2" transform="translate(1062.000000, 12.000000)">
                <g id="magnifying-glass" transform="translate(1.000000, 0.000000)">
                    <g id="Layer_1">
                        <g id="Group">
                            <path d="M12.5,25 C19.4035594,25 25,19.4035594 25,12.5 C25,5.59644063 19.4035594,0 12.5,0 C5.59644063,0 0,5.59644063 0,12.5 C0,19.4035594 5.59644063,25 12.5,25 Z" id="Oval" fill="#A9E3D8"></path>
                            <g transform="translate(6.589844, 6.248047)" id="Shape">
                                <path d="M0.308235448,11.1225335 C-0.0602067732,11.4911305 -0.0602067732,12.0882036 0.308235448,12.4569556 C0.676677669,12.8253978 1.2740605,12.8253978 1.64250272,12.4569556 L2.09926112,11.9741786 L1.85878249,12.228286 L0.54054454,10.9100481 L0.308235448,11.1225335 Z" fill="#C64F4F"></path>
                                <polygon fill="#376F97" points="5.85550555 8.00378389 4.836443 6.98468262 4.33945641 7.43888561 4.33945641 7.43888561 5.39332661 8.49244606"></polygon>
                                <polygon fill="#376F97" points="1.38870504 10.1351037 0.54054454 10.9100481 0.54054454 10.9100481 1.85878249 12.228286 2.09926112 11.9742173 2.96256042 11.0619008 2.96256042 11.0619008 1.72690836 9.82624872"></polygon>
                                <path d="M11.6968403,7.09630713 C13.3148344,5.47831302 13.3145246,2.85515618 11.6968403,1.23716207 C10.0788461,-0.380832039 7.45537956,-0.380832039 5.83769519,1.23716207 C4.45805021,2.61680706 4.25570899,4.72725773 5.22908408,6.32225324 C5.08358116,6.23575682 4.89301026,6.25387693 4.76779566,6.37913025 C4.61958246,6.52734345 4.61958246,6.76782208 4.76779566,6.91603528 L4.836443,6.98468262 L5.85550555,8.00374517 L5.39328789,8.49240735 L4.3394177,7.43884689 L1.38866632,10.1350649 L1.72683092,9.82621 L2.96248299,11.0618621 L5.85546683,8.00374517 L5.94862278,8.09690112 C6.09714573,8.24526919 6.33731461,8.24526919 6.48552781,8.09690112 C6.5998626,7.98256632 6.62526173,7.81375505 6.56296418,7.67433088 C8.16349639,8.68193285 10.3029857,8.49016169 11.6968403,7.09630713 L11.6968403,7.09630713 Z M6.54306303,6.39062955 C5.31465127,5.16252753 5.31465127,3.1709804 6.54306303,1.94256863 C7.77147479,0.714466614 9.76271218,0.714466614 10.9911239,1.94256863 C12.2195357,3.1709804 12.2195357,5.16252753 10.9911239,6.39078442 C9.76271218,7.61904131 7.77147479,7.61900259 6.54306303,6.39062955 L6.54306303,6.39062955 Z" fill="#C64F4F"></path>
                                <path d="M10.9911239,1.94256863 C9.76271218,0.714466614 7.77147479,0.714466614 6.54306303,1.94256863 C5.31465127,3.1709804 5.31465127,5.16252753 6.54306303,6.39062955 C7.77147479,7.61904131 9.76271218,7.61904131 10.9911239,6.39078442 C12.2195357,5.16252753 12.2195357,3.17094168 10.9911239,1.94256863 L10.9911239,1.94256863 Z M6.77328134,6.16056611 C5.67221368,5.05938229 5.67221368,3.27408692 6.77328134,2.17274823 C7.87462003,1.07156441 9.65991541,1.07156441 10.7612541,2.17274823 C11.8623218,3.27393204 11.8623218,5.05938229 10.7612541,6.16056611 C9.65987669,7.26178865 7.87462003,7.26178865 6.77328134,6.16056611 L6.77328134,6.16056611 Z" fill="#CECFCF"></path>
                                <path d="M10.7612541,2.17274823 C9.65991541,1.07156441 7.87462003,1.07156441 6.77328134,2.17274823 C5.67221368,3.27408692 5.67221368,5.05938229 6.77328134,6.16056611 C7.87462003,7.26174993 9.65991541,7.26174993 10.7612541,6.16056611 C11.862283,5.05938229 11.862283,3.27397076 10.7612541,2.17274823 L10.7612541,2.17274823 Z" fill="#FFFFF5"></path>
                                <path d="M10.7612541,2.17274823 C10.7533943,2.16519818 10.7455345,2.15853865 10.7376747,2.15156938 L6.7521025,6.13714161 C6.75907177,6.1450014 6.7657313,6.15301606 6.77328134,6.16056611 C7.87462003,7.26174993 9.65991541,7.26174993 10.7612541,6.16056611 C11.862283,5.05938229 11.862283,3.27397076 10.7612541,2.17274823 L10.7612541,2.17274823 Z" fill="#EAEAE2"></path>
                                <polygon fill="#D77E44" points="2.35878249 11.9742173 1.85878249 12.4742173 1.85878249 12.4742173"></polygon>
                                <path d="M1.25652116,11.6260247 L0.36995223,12.5127485 C0.740794978,12.8238491 1.29403908,12.8054192 1.64250272,12.4569556 L1.85878249,12.228286 L1.25652116,11.6260247 Z" fill="#911919"></path>
                                <polygon fill="#10587A" points="4.89181 7.99108432 5.39332661 8.49244606 5.85550555 8.00378389 5.36730799 7.51554761"></polygon>
                                <polygon fill="#10587A" points="1.25652116 11.6260247 1.85878249 12.228286 2.09926112 11.9742173 2.96256042 11.0619008 2.39173826 10.4911173"></polygon>
                                <polygon fill="#911919" points="4.89181 7.99108432 2.39173826 10.4911173 2.96256042 11.0619008 5.85550555 8.00378389 5.39332661 8.49244606"></polygon>
                                <path d="M11.6968403,1.23716207 C11.688361,1.22852792 11.6789912,1.22051325 11.6705119,1.21218885 L10.9651053,1.91775028 C10.9735846,1.92607469 10.9826447,1.93408935 10.9911239,1.94256863 C12.2195357,3.1709804 12.2195357,5.16252753 10.9911239,6.39078442 C9.76271218,7.61904131 7.77147479,7.61904131 6.54306303,6.39062955 C6.53458375,6.38215027 6.52672396,6.37309021 6.51824468,6.36461093 L5.36726928,7.51558633 L5.9486615,8.09697855 C6.09718445,8.24534663 6.33735333,8.24534663 6.48556653,8.09697855 C6.59990132,7.98264376 6.62530045,7.81383249 6.56300289,7.67440831 C8.16349639,8.68193285 10.3029857,8.49016169 11.6968403,7.09630713 C13.3148344,5.47831302 13.3145246,2.85515618 11.6968403,1.23716207 Z" fill="#911919"></path>
                                <path d="M10.9911239,1.94256863 C10.9826447,1.93408935 10.9735846,1.92607469 10.9651053,1.91775028 L10.7349257,2.14792987 C10.743405,2.15609941 10.7524651,2.16426894 10.7612541,2.17274823 C11.8623218,3.27393204 11.8623218,5.05938229 10.7612541,6.16056611 C9.65991541,7.26174993 7.87462003,7.26174993 6.77328134,6.16056611 C6.76480206,6.15193196 6.75663252,6.14318165 6.74846299,6.13439262 L6.51828339,6.36457221 C6.52676268,6.37305149 6.53462247,6.38211155 6.54310175,6.39059083 C7.77151351,7.61900259 9.7627509,7.61900259 10.9911627,6.3907457 C12.2195744,5.16248881 12.2195357,3.17094168 10.9911239,1.94256863 L10.9911239,1.94256863 Z" fill="#B7BCBC"></path>
                            </g>
                        </g>
                    </g>
                </g>
                <rect id="Rectangle-28" fill="#C4C4C4" style="mix-blend-mode: color;" x="0" y="0" width="27" height="26" rx="13"></rect>
            </g>
        </g>
    </g>
</svg>